<svg id="visual" viewBox="0 0 675 900" width="675" height="900" xmlns="http://www.w3.org/2000/svg" xmlns:xlink="http://www.w3.org/1999/xlink" version="1.1"><path d="M0 442L11.3 431C22.7 420 45.3 398 67.8 386.2C90.3 374.3 112.7 372.7 135.2 386.3C157.7 400 180.3 429 202.8 437C225.3 445 247.7 432 270.2 408.3C292.7 384.7 315.3 350.3 337.8 340.8C360.3 331.3 382.7 346.7 405 368.2C427.3 389.7 449.7 417.3 472.2 424.5C494.7 431.7 517.3 418.3 540 386.3C562.7 354.3 585.3 303.7 607.8 287.5C630.3 271.3 652.7 289.7 663.8 298.8L675 308L675 0L663.8 0C652.7 0 630.3 0 607.8 0C585.3 0 562.7 0 540 0C517.3 0 494.7 0 472.2 0C449.7 0 427.3 0 405 0C382.7 0 360.3 0 337.8 0C315.3 0 292.7 0 270.2 0C247.7 0 225.3 0 202.8 0C180.3 0 157.7 0 135.2 0C112.7 0 90.3 0 67.8 0C45.3 0 22.7 0 11.3 0L0 0Z" fill="#3f1f06" stroke-linecap="round" stroke-linejoin="miter"></path></svg>